<svg width="24" height="24" viewBox="0 0 24 24" fill="none" xmlns="http://www.w3.org/2000/svg">
<path d="M20.3333 2H7C6.77899 2 6.56703 2.0878 6.41074 2.24408C6.25446 2.40036 6.16667 2.61232 6.16667 2.83333V19.0833C6.16667 19.4149 6.03497 19.7328 5.80055 19.9672C5.56613 20.2016 5.24819 20.3333 4.91667 20.3333C4.58515 20.3333 4.2672 20.2016 4.03278 19.9672C3.79836 19.7328 3.66667 19.4149 3.66667 19.0833V13.6667H5.33333V12H2.83333C2.61232 12 2.40036 12.0878 2.24408 12.2441C2.0878 12.4004 2 12.6123 2 12.8333V19.0833C2 19.8569 2.30729 20.5987 2.85427 21.1457C3.40125 21.6927 4.14312 22 4.91667 22H18.6667C19.3287 21.9967 19.9627 21.7323 20.4308 21.2641C20.8989 20.796 21.1634 20.162 21.1667 19.5V2.83333C21.1667 2.61232 21.0789 2.40036 20.9226 2.24408C20.7663 2.0878 20.5543 2 20.3333 2ZM17.8333 17.8333H9.5V16.1667H17.8333V17.8333ZM17.8333 13.6667H9.5V12H17.8333V13.6667ZM17.8333 9.5H9.5V5.33333H17.8333V9.5Z" fill="black"/>
</svg>
